<svg width="92" height="26" viewBox="0 0 92 26" fill="none" xmlns="http://www.w3.org/2000/svg">
<path fill-rule="evenodd" clip-rule="evenodd" d="M0 5.06859C0 2.26929 2.26929 0 5.06859 0H20.9079C23.7072 0 25.9765 2.26929 25.9765 5.06859V20.9079C25.9765 23.7072 23.7072 25.9765 20.9079 25.9765H5.06859C2.26929 25.9765 0 23.7072 0 20.9079V5.06859ZM2.5343 5.70217C2.5343 3.9526 3.9526 2.5343 5.70217 2.5343H20.2744C22.0239 2.5343 23.4422 3.9526 23.4422 5.70217V20.2744C23.4422 22.0239 22.0239 23.4422 20.2744 23.4422H5.70217C3.9526 23.4422 2.5343 22.0239 2.5343 20.2744V5.70217Z" fill="#A6CA15"/>
<path d="M20.0221 5.36229C20.9097 5.92284 21.1747 7.09676 20.6142 7.9843L13.0113 20.0222C12.6806 20.5458 12.1156 20.8754 11.4971 20.9057C10.8786 20.9359 10.2841 20.663 9.90392 20.1742L5.46891 14.472C4.82443 13.6434 4.9737 12.4492 5.80232 11.8047C6.63093 11.1602 7.82511 11.3095 8.46959 12.1381L11.2427 15.7036L17.4001 5.95436C17.9607 5.06681 19.1346 4.80173 20.0221 5.36229Z" fill="#1E2A37"/>
<path d="M66.7784 5.57297C66.4496 5.14014 65.882 4.96591 65.3678 5.13993C64.8536 5.31396 64.5075 5.79747 64.5075 6.34161V19.6587C64.5075 20.3591 65.0738 20.927 65.7723 20.927C66.4709 20.927 67.0372 20.3591 67.0372 19.6587V10.099L74.8851 20.4273C75.214 20.8602 75.7816 21.0344 76.2957 20.8604C76.8099 20.6863 77.1561 20.2028 77.1561 19.6587V6.34161C77.1561 5.64116 76.5898 5.07332 75.8912 5.07332C75.1927 5.07332 74.6264 5.64116 74.6264 6.34161V15.9013L66.7784 5.57297Z" fill="#1E2A37"/>
<path d="M32.886 5.07332C33.5845 5.07332 34.1508 5.64115 34.1508 6.34161L34.1508 19.6587C34.1508 20.3591 33.5845 20.927 32.886 20.927C32.1874 20.927 31.6211 20.3591 31.6211 19.6587V6.34161C31.6211 5.64115 32.1874 5.07332 32.886 5.07332Z" fill="#1E2A37"/>
<path d="M79.0534 6.34161C79.0534 5.64115 79.6197 5.07332 80.3182 5.07332L90.4371 5.07332C91.1357 5.07332 91.702 5.64115 91.702 6.34161C91.702 7.04207 91.1357 7.60991 90.4371 7.60991H86.6425V19.6587C86.6425 20.3591 86.0762 20.927 85.3777 20.927C84.6791 20.927 84.1128 20.3591 84.1128 19.6587V7.6099L80.3182 7.60991C79.6197 7.60991 79.0534 7.04207 79.0534 6.34161Z" fill="#1E2A37"/>
<path d="M51.2264 6.34161C51.2264 5.64115 51.7927 5.07332 52.4913 5.07332L61.3453 5.07332C62.0439 5.07332 62.6102 5.64115 62.6102 6.34161C62.6102 7.04207 62.0439 7.60991 61.3453 7.60991L53.7562 7.6099V11.4148L58.1832 11.4148C58.8817 11.4148 59.448 11.9826 59.448 12.6831C59.448 13.3835 58.8817 13.9514 58.1832 13.9514L53.7562 13.9514V18.3904H61.3453C62.0439 18.3904 62.6102 18.9582 62.6102 19.6587C62.6102 20.3591 62.0439 20.927 61.3453 20.927H52.4913C51.7927 20.927 51.2264 20.3591 51.2264 19.6587L51.2264 6.34161Z" fill="#1E2A37"/>
<path fill-rule="evenodd" clip-rule="evenodd" d="M37.9454 5.07332C37.2468 5.07332 36.6805 5.64115 36.6805 6.34161V19.6587C36.6805 19.9951 36.8138 20.3177 37.051 20.5555C37.2882 20.7934 37.6099 20.927 37.9454 20.927H42.0854C43.3445 20.927 44.5761 20.5579 45.6287 19.8653C50.5569 16.6224 50.5569 9.37791 45.6287 6.13501C44.5761 5.44235 43.3445 5.07332 42.0854 5.07332L37.9454 5.07332ZM39.2103 18.3904V7.60991H42.0854C42.8513 7.60991 43.6004 7.83438 44.2407 8.25572C47.6466 10.4969 47.6466 15.5034 44.2407 17.7446C43.6004 18.1659 42.8513 18.3904 42.0854 18.3904H39.2103Z" fill="#1E2A37"/>
</svg>
