<svg width="464" height="280" viewBox="0 0 464 280" fill="none" xmlns="http://www.w3.org/2000/svg">
<g clip-path="url(#clip0_1542_19728)">
<path d="M239.4 81.8005C256.6 82.7005 271.1 71.0005 277 56.8005C282.4 43.7005 280.7 27.7005 270.9 16.0005C258 0.700474 238.9 2.10047 237.4 2.20047C235.1 2.40047 219.1 4.10047 209.1 18.3005C197.3 35.1005 204.7 54.3005 205.5 56.2005C210.4 68.4005 222.5 80.9005 239.4 81.8005Z" stroke="#0A9CA4" stroke-width="5" stroke-miterlimit="10" stroke-linecap="round"/>
<path d="M2.19922 219.202C6.39922 209.502 17.4992 206.102 24.6992 210.402C31.2992 214.302 32.8992 223.502 30.3992 229.402C27.8992 235.102 20.5992 239.502 18.5992 237.902C12.7992 233.402 36.2992 172.702 85.7992 149.902C97.8992 144.302 108.599 142.402 114.599 141.502C116.699 141.102 133.099 138.002 141.499 122.402C147.299 111.502 147.799 97.0016 140.099 85.4016C130.499 70.9016 113.899 69.9016 112.699 69.8016C96.1992 69.0016 85.8992 80.3016 84.4992 81.9016C76.0992 91.5016 73.5992 105.102 77.5992 116.802C82.6992 131.602 97.6992 141.802 114.599 141.402C129.199 142.102 152.099 145.202 172.899 160.002C215.399 190.102 228.299 253.802 221.999 256.702C213.199 260.902 137.199 159.002 163.699 113.202C171.399 99.8016 188.199 90.7016 203.299 91.5016C227.499 92.9016 248.499 120.102 244.299 131.402C243.099 134.502 239.399 138.302 235.799 138.002C232.499 137.702 229.699 133.702 229.099 131.102C225.899 117.702 261.699 84.3016 291.399 92.6016C306.899 96.9016 315.099 111.202 316.799 114.302C334.699 147.102 308.599 191.202 296.399 211.902C275.299 247.702 241.699 281.702 233.499 276.402C226.499 271.902 238.899 239.502 248.399 220.802C253.899 210.102 284.999 149.302 345.099 138.902C353.499 137.402 360.699 137.302 365.599 137.402C379.799 139.102 393.599 131.902 400.199 119.502C407.399 105.902 404.199 89.6016 394.599 79.7016C384.699 69.4016 371.399 69.5016 368.999 69.6016C364.699 69.7016 354.599 70.7016 346.199 78.7016C337.499 87.0016 334.499 99.4016 336.799 110.202C339.699 123.802 351.099 134.602 365.499 137.402C376.199 139.302 401.699 145.202 425.199 166.602C427.699 168.902 435.499 175.302 442.999 185.802C455.299 203.002 459.799 220.102 461.499 230.302" stroke="#0A9CA4" stroke-width="5" stroke-miterlimit="10" stroke-linecap="round"/>
</g>
<defs>
<clipPath id="clip0_1542_19728">
<rect width="463.9" height="279.1" fill="white"/>
</clipPath>
</defs>
</svg>
